<svg xmlns="http://www.w3.org/2000/svg" xmlns:xlink="http://www.w3.org/1999/xlink" width="500" zoomAndPan="magnify" viewBox="0 0 375 374.999991" height="500" preserveAspectRatio="xMidYMid meet" version="1.0"><defs><clipPath id="c9b4b9045d"><path d="M 127 89.632812 L 233 89.632812 L 233 277 L 127 277 Z M 127 89.632812 " clip-rule="nonzero"/></clipPath><clipPath id="b88a09f4a8"><path d="M 15.800781 144 L 146 144 L 146 285 L 15.800781 285 Z M 15.800781 144 " clip-rule="nonzero"/></clipPath><clipPath id="04346a44b4"><path d="M 207.578125 112.347656 L 359.191406 112.347656 L 359.191406 186.605469 L 207.578125 186.605469 Z M 207.578125 112.347656 " clip-rule="nonzero"/></clipPath><clipPath id="56bd53db2d"><path d="M 151.652344 180.199219 L 354.957031 180.199219 L 354.957031 285.375 L 151.652344 285.375 Z M 151.652344 180.199219 " clip-rule="nonzero"/></clipPath></defs><g clip-path="url(#c9b4b9045d)"><path fill="#e71f69" d="M 142.550781 276.382812 C 142.550781 276.382812 142.796875 220.113281 232.257812 145.992188 C 232.257812 145.992188 139.390625 210.359375 148.257812 89.632812 C 148.257812 89.632812 106.582031 173.496094 142.550781 276.382812 " fill-opacity="1" fill-rule="nonzero"/></g><path fill="#e71f69" d="M 188.136719 120.28125 C 197.761719 126.414062 200.167969 139.84375 193.515625 150.28125 C 186.863281 160.714844 173.671875 164.203125 164.046875 158.070312 C 154.421875 151.9375 152.015625 138.503906 158.667969 128.070312 C 165.320312 117.636719 178.515625 114.148438 188.136719 120.28125 " fill-opacity="1" fill-rule="nonzero"/><g clip-path="url(#b88a09f4a8)"><path fill="#f8b31a" d="M 145.824219 284.796875 C 145.824219 284.796875 105.824219 251.726562 105.246094 144.59375 C 105.246094 144.59375 96.875 248.457031 15.925781 171.550781 C 15.925781 171.550781 51.394531 250.300781 145.824219 284.796875 " fill-opacity="1" fill-rule="nonzero"/></g><path fill="#f8b31a" d="M 61.109375 161.027344 C 71.109375 157.75 82.097656 163.882812 85.65625 174.730469 C 89.210938 185.574219 83.984375 197.023438 73.984375 200.300781 C 63.980469 203.578125 52.992188 197.441406 49.4375 186.597656 C 45.882812 175.753906 51.105469 164.304688 61.109375 161.027344 " fill-opacity="1" fill-rule="nonzero"/><path fill="#00a89f" d="M 336.179688 149.652344 L 275.324219 242.03125 C 208.75 227.242188 166.324219 247.527344 159.746094 251.660156 C 159.746094 251.660156 218.820312 149.117188 336.179688 149.652344 " fill-opacity="1" fill-rule="nonzero"/><g clip-path="url(#04346a44b4)"><path fill="#f8b31a" d="M 359.191406 112.511719 L 344.777344 134.394531 C 282.996094 133.320312 236.101562 162.15625 207.601562 186.574219 C 233.710938 156.78125 284.308594 113.671875 359.191406 112.511719 " fill-opacity="1" fill-rule="nonzero"/></g><path fill="#e71f69" d="M 346.386719 168.554688 L 284.265625 260.632812 C 209.824219 242.839844 163.15625 264.742188 155.6875 268.636719 L 157.957031 259.140625 C 171.636719 252.59375 216.753906 237.320312 282.839844 253.117188 L 340.453125 167.25 C 342.417969 167.648438 344.398438 168.082031 346.386719 168.554688 " fill-opacity="1" fill-rule="nonzero"/><g clip-path="url(#56bd53db2d)"><path fill="#00609e" d="M 354.9375 181.652344 L 290.832031 276.457031 C 208.957031 256.886719 158.378906 281.785156 151.6875 285.375 L 153.945312 275.921875 C 168.261719 268.945312 217.015625 251.9375 289.097656 269.164062 L 348.875 180.3125 C 350.882812 180.71875 352.90625 181.164062 354.9375 181.652344 " fill-opacity="1" fill-rule="nonzero"/></g></svg>